<svg width="18" height="16" viewBox="0 0 18 16" fill="none" xmlns="http://www.w3.org/2000/svg">
    <g clip-path="url(#pv2r2asgca)" fill="#777">
        <path d="M8.763 13.615H2.546a2.448 2.448 0 0 1-2.42-2.472V2.886A2.448 2.448 0 0 1 2.545.415h11.16a2.448 2.448 0 0 1 2.42 2.471V7.67a4.81 4.81 0 0 0-.82-.6V2.886a1.629 1.629 0 0 0-1.6-1.652H2.545a1.629 1.629 0 0 0-1.6 1.652v8.258a1.63 1.63 0 0 0 1.6 1.651h5.842c.099.284.224.558.374.818l.001.002zm-.638-5.358L2.546 4.541V2.886L8.13 6.602l5.575-3.716v1.655l-5.58 3.716z" stroke="#707070" stroke-width=".25"/>
        <path d="M17.1 15.123c-.018.029-.04.056-.054.086a.696.696 0 0 1-1.151.193c-.49-.48-.973-.965-1.452-1.455a.227.227 0 0 0-.243-.088.23.23 0 0 0-.082.04 3.347 3.347 0 1 1 1.186-1.029c.18.17.37.342.553.522.288.283.578.566.856.858.141.148.264.319.388.479v.394zm-4.638-6.34a2.079 2.079 0 1 0 .018 4.158 2.079 2.079 0 0 0-.018-4.158z"/>
    </g>
    <defs>
        <clipPath id="pv2r2asgca">
            <path fill="#fff" transform="translate(0 .29)" d="M0 0h17.968v15.422H0z"/>
        </clipPath>
    </defs>
</svg>
